<svg width="31" height="29" viewBox="0 0 31 29" fill="none" xmlns="http://www.w3.org/2000/svg">
<path d="M30.3584 14.2624L16.2734 0.317593C16.172 0.216917 16.0516 0.137044 15.919 0.0825477C15.7864 0.0280511 15.6442 0 15.5006 0C15.3571 0 15.2149 0.0280511 15.0823 0.0825477C14.9497 0.137044 14.8292 0.216917 14.7278 0.317593L0.642868 14.2624C0.232527 14.669 0 15.2212 0 15.7971C0 16.9931 0.981399 17.9654 2.18849 17.9654H3.67255V27.9159C3.67255 28.5155 4.16154 29 4.7668 29H13.3122V21.411H17.142V29H26.2345C26.8397 29 27.3287 28.5155 27.3287 27.9159V17.9654H28.8128C29.3941 17.9654 29.9515 17.7384 30.3618 17.3285C31.2133 16.4815 31.2133 15.1094 30.3584 14.2624V14.2624Z" fill="black"/>
</svg>
