<svg width="19" height="23" viewBox="0 0 19 23" fill="none" xmlns="http://www.w3.org/2000/svg">
<path d="M14.3633 20.0391C15.707 20.0391 16.7227 19.5586 17.4102 18.5977C17.6055 18.707 17.7656 18.8086 17.8906 18.9023C18.2109 19.1523 18.3711 19.5078 18.3711 19.9688C18.3711 20.7031 18.0781 21.3047 17.4922 21.7734C16.9062 22.25 16.2266 22.4883 15.4531 22.4883C14.6875 22.4883 13.9922 22.418 13.3672 22.2773C12.75 22.1367 12.2422 21.9844 11.8438 21.8203C10.7812 21.3672 9.41016 21.1406 7.73047 21.1406C7.54297 20.7734 7.44922 20.3906 7.44922 19.9922C7.44922 19.5938 7.48828 19.3203 7.56641 19.1719C8.04297 19.0859 8.46094 19.043 8.82031 19.043C9.1875 19.043 9.51562 19.0664 9.80469 19.1133C10.1016 19.168 10.3594 19.2305 10.5781 19.3008C10.7969 19.3789 11.043 19.4609 11.3164 19.5469C11.5977 19.6328 11.8711 19.7109 12.1367 19.7812C12.7539 19.9531 13.4961 20.0391 14.3633 20.0391ZM17.9141 9.21094C17.9141 11.4375 17.4141 13.3203 16.4141 14.8594C15.4141 16.3906 13.9766 17.4375 12.1016 18C11.2031 18.2656 10.2266 18.3984 9.17188 18.3984C8.125 18.3984 7.07422 18.2109 6.01953 17.8359C4.96484 17.4531 4.01953 16.918 3.18359 16.2305C2.35547 15.5352 1.69141 14.6484 1.19141 13.5703C0.691406 12.4922 0.441406 11.3047 0.441406 10.0078C0.441406 7.58594 1 5.62109 2.11719 4.11328C3.23438 2.60547 4.84375 1.57031 6.94531 1.00781C7.67188 0.8125 8.44531 0.714844 9.26562 0.714844C10.0938 0.714844 10.9258 0.828125 11.7617 1.05469C12.5977 1.28125 13.3828 1.62891 14.1172 2.09766C14.8594 2.56641 15.5156 3.125 16.0859 3.77344C17.3047 5.16406 17.9141 6.97656 17.9141 9.21094ZM5.79688 14.7422C6.28125 15.3672 6.84375 15.8477 7.48438 16.1836C8.125 16.5195 8.80078 16.6875 9.51172 16.6875C10.2227 16.6875 10.8516 16.5586 11.3984 16.3008C11.9531 16.043 12.4062 15.7031 12.7578 15.2812C13.1094 14.8516 13.4023 14.3438 13.6367 13.7578C14.0586 12.7031 14.2695 11.4531 14.2695 10.0078C14.2695 7.8125 13.75 6.00391 12.7109 4.58203C11.6719 3.16016 10.3984 2.44922 8.89062 2.44922C8.29688 2.44922 7.71875 2.55859 7.15625 2.77734C6.60156 2.99609 6.12109 3.34766 5.71484 3.83203C5.31641 4.30859 5.01562 4.85938 4.8125 5.48438C4.42188 6.64062 4.22656 7.83984 4.22656 9.08203C4.22656 10.3242 4.36719 11.4219 4.64844 12.375C4.92969 13.3281 5.3125 14.1172 5.79688 14.7422Z" fill="#2FD2DC"/>
</svg>
