<svg width="26" height="26" viewBox="0 0 26 26" fill="none" xmlns="http://www.w3.org/2000/svg">
<path d="M25.5695 3.64371L22.3072 0.412527C22.0268 0.147724 21.6542 0 21.2668 0C20.8793 0 20.5068 0.147724 20.2264 0.412527L17.3255 3.29439H1.76341C1.29573 3.29439 0.847196 3.47841 0.516492 3.80596C0.185788 4.1335 0 4.57775 0 5.04098V24.2534C0 24.7166 0.185788 25.1609 0.516492 25.4884C0.847196 25.816 1.29573 26 1.76341 26H21.161C21.6286 26 22.0772 25.816 22.4079 25.4884C22.7386 25.1609 22.9244 24.7166 22.9244 24.2534V8.32456L25.5695 5.70468C25.8452 5.43124 26 5.06061 26 4.6742C26 4.28778 25.8452 3.91715 25.5695 3.64371V3.64371ZM13.0757 15.634L9.38136 16.4462L10.2631 12.822L18.6834 4.46461L21.5313 7.28534L13.0757 15.634ZM22.4835 6.28979L19.6356 3.46905L21.2668 1.85346L24.1147 4.6742L22.4835 6.28979Z" fill="black"/>
</svg>
