<svg width="20" height="20" viewBox="0 0 20 20" fill="none" xmlns="http://www.w3.org/2000/svg">
<path d="M3.33333 11.6667H6.66666V17.5C6.66666 17.721 6.75446 17.933 6.91074 18.0893C7.06702 18.2455 7.27898 18.3333 7.49999 18.3333H12.5C12.721 18.3333 12.933 18.2455 13.0892 18.0893C13.2455 17.933 13.3333 17.721 13.3333 17.5V11.6667H16.6667C16.8235 11.6664 16.9772 11.6219 17.1099 11.5383C17.2427 11.4546 17.3491 11.3353 17.4171 11.1939C17.485 11.0524 17.5117 10.8947 17.4941 10.7388C17.4765 10.5829 17.4153 10.4352 17.3175 10.3125L10.6508 1.97917C10.3333 1.58334 9.66666 1.58334 9.34916 1.97917L2.6825 10.3125C2.58469 10.4352 2.52347 10.5829 2.50586 10.7388C2.48824 10.8947 2.51495 11.0524 2.58291 11.1939C2.65087 11.3353 2.75733 11.4546 2.89007 11.5383C3.02281 11.6219 3.17644 11.6664 3.33333 11.6667Z" fill="#D6D6D6"/>
</svg>
